# This file uses centimeters as units for non-parametric coordinates.

mtllib AirPortGate1After.mtl
g default
v 3.766848 1.745994 -50.291449
v 5.713265 1.745994 -50.291449
v 3.766848 -0.095802 -50.291449
v 3.766848 -0.095802 -49.318656
v 5.713265 -0.095802 -49.318656
v 5.713265 -0.095802 -50.291449
v 3.766848 1.155992 -50.291449
v 3.766848 1.155992 -49.318656
v 5.713265 1.155992 -49.318656
v 5.713265 1.155992 -50.291449
v 3.766848 1.745994 -49.943052
v 3.766848 1.155992 -49.943052
v 3.766848 -0.095802 -49.943052
v 5.713265 -0.095802 -49.943052
v 5.713265 1.155992 -49.943052
v 5.713265 1.745994 -49.943052
v 3.666848 -0.453569 -49.943052
v 5.813265 -0.453569 -49.943052
v 5.813265 -0.449677 -49.218658
v 3.666848 -0.449677 -49.218658
v 3.666848 -0.095802 -49.218658
v 3.666848 -0.095802 -49.943052
v 5.813265 -0.095802 -49.218658
v 5.813265 -0.095802 -49.943052
v 5.813265 -0.095802 -50.391448
v 3.666848 -0.095802 -50.391448
v 5.813265 -0.453569 -50.391448
v 3.666848 -0.453569 -50.391448
v 3.766848 1.155992 -49.933366
v 5.713265 1.155992 -49.933366
v 5.713265 1.154447 -49.943052
v 3.766848 1.154447 -49.943052
vt 0.439284 0.372847
vt 0.560714 0.372847
vt 0.139965 0.681332
vt 0.619111 0.919230
vt 0.922049 0.919230
vt 0.139380 0.561815
vt 0.317596 0.561815
vt 0.560714 0.372847
vt 0.439284 0.372847
vt 0.042761 0.681332
vt 0.715756 0.490087
vt 0.884179 0.490087
vt 0.230859 0.979080
vt 0.574324 0.979080
vt 0.884179 0.490087
vt 0.715756 0.490087
vt 0.317596 0.383600
vt 0.139380 0.383600
vt 0.564731 0.042666
vt 0.478402 0.254300
vt 0.564731 0.192094
vt 0.027288 0.254300
vt 0.004112 0.231123
vt 0.540799 0.192094
vt 0.501579 0.231123
vt 0.540799 0.018734
vt 0.042761 0.876209
vt 0.574324 0.874968
vt 0.139965 0.876209
vt 0.230859 0.874968
vt 0.230859 0.654077
vt 0.042761 0.681332
vt 0.574324 0.654077
vt 0.139965 0.681332
vt 0.139965 0.876209
vt 0.922049 0.973455
vt 0.042761 0.876209
vt 0.654439 0.189388
vt 0.517224 0.372847
vt 0.139380 0.497987
vt 0.317596 0.497987
vt 0.517224 0.372847
vt 0.654439 0.039960
vt 0.194204 0.876209
vt 0.619111 0.973455
vt 0.139965 0.968060
vt 0.439284 0.403654
vt 0.517224 0.403654
vt 0.884179 0.506736
vt 0.715756 0.506736
vt 0.517224 0.403654
vt 0.439284 0.403654
vt 0.715756 0.506736
vt 0.884179 0.506736
vt 0.560714 0.403654
vt 0.560714 0.403654
vt 0.619111 0.822050
vt 0.922049 0.822050
vt 0.922049 0.917723
vt 0.619111 0.917723
vt 0.574324 0.874968
vt 0.230859 0.874968
vt 0.574324 0.654077
vt 0.230859 0.654077
vt 0.194204 0.968060
vt 0.194204 0.681332
vt 0.194204 0.681332
vt 0.194204 0.876209
vt 0.139965 0.968060
vt 0.194204 0.968060
vt 0.574324 0.979080
vt 0.230859 0.979080
vt 0.230859 0.874696
vt 0.574324 0.874696
vt 0.036333 0.293446
vt 0.487446 0.293446
vt 0.510623 0.316622
vt 0.013156 0.316622
vt 0.678371 0.016028
vt 0.678371 0.189388
vt 0.564731 0.275473
vt 0.540799 0.299405
vt 0.654439 0.272767
vt 0.678371 0.296699
vn 0.000000 0.000000 -1.000000
vn 0.000000 0.000000 -1.000000
vn 0.000000 0.000000 -1.000000
vn 0.000000 0.000000 -1.000000
vn 0.000000 -0.999995 0.003318
vn 0.000000 -0.999995 0.003318
vn 0.000000 -0.999986 0.005372
vn 0.000000 -0.999986 0.005372
vn -1.000000 0.000000 0.000000
vn -1.000000 0.000000 0.000000
vn -1.000000 0.000000 0.000000
vn -1.000000 0.000000 0.000000
vn 0.000000 0.000000 1.000000
vn 0.000000 0.000000 1.000000
vn 0.000000 0.000000 1.000000
vn 0.000000 0.000000 1.000000
vn 1.000000 0.000000 0.000000
vn 1.000000 0.000000 0.000000
vn 1.000000 0.000000 0.000000
vn 1.000000 0.000000 0.000000
vn 0.000000 0.000000 -1.000000
vn 0.000000 0.000000 -1.000000
vn 0.000000 0.000000 -1.000000
vn 0.000000 0.000000 -1.000000
vn -1.000000 0.000000 0.000000
vn -1.000000 0.000000 0.000000
vn -1.000000 0.000000 0.000000
vn -1.000000 0.000000 0.000000
vn 0.000000 0.000000 1.000000
vn 0.000000 0.000000 1.000000
vn 0.000000 0.000000 1.000000
vn 0.000000 0.000000 1.000000
vn 1.000000 0.000000 0.000000
vn 1.000000 0.000000 0.000000
vn 1.000000 0.000000 0.000000
vn 1.000000 0.000000 0.000000
vn 0.000000 0.000000 -1.000000
vn 0.000000 0.000000 -1.000000
vn -1.000000 0.000000 0.000000
vn -1.000000 0.000000 0.000000
vn -1.000000 0.000000 0.000000
vn -1.000000 0.000000 0.000000
vn -1.000000 0.000000 0.000000
vn -1.000000 0.000000 0.000000
vn 0.000000 -1.000000 0.000000
vn 0.000000 -1.000000 0.000000
vn 1.000000 0.000000 0.000000
vn 1.000000 0.000000 0.000000
vn 1.000000 0.000000 0.000000
vn 1.000000 0.000000 0.000000
vn 1.000000 0.000000 0.000000
vn 1.000000 0.000000 0.000000
vn 0.000000 1.000000 0.000000
vn 0.000000 1.000000 0.000000
vn 0.000000 1.000000 0.000000
vn 0.000000 1.000000 0.000000
vn 0.000000 1.000000 0.000000
vn 0.000000 1.000000 0.000000
vn 0.000000 1.000000 0.000000
vn 0.000000 1.000000 0.000000
vn 0.000000 1.000000 0.000000
vn 0.000000 1.000000 0.000000
vn 0.000000 1.000000 0.000000
vn 0.000000 1.000000 0.000000
vn 0.000000 1.000000 0.000000
vn 0.000000 1.000000 0.000000
vn 0.000000 1.000000 0.000000
vn 0.000000 1.000000 0.000000
vn 0.000000 1.000000 0.000000
vn 0.000000 1.000000 0.000000
vn 0.000000 1.000000 0.000000
vn 0.000000 1.000000 0.000000
vn 0.000000 0.000000 1.000000
vn 0.000000 0.000000 1.000000
vn 0.000000 0.000000 1.000000
vn 0.000000 0.000000 1.000000
s 1
g pCube367
usemtl initialShadingGroup
f 1/13/1 2/14/2 10/28/3 7/30/4
s 2
f 17/40/5 18/41/6 19/17/7 20/18/8
s 3
f 17/39/9 20/9/10 21/47/11 22/48/12
s off
f 20/11/13 19/12/14 23/49/15 21/50/16
s 4
f 19/1/17 18/42/18 24/51/19 23/52/20
s off
f 26/53/21 25/54/22 27/15/23 28/16/24
s 5
f 13/3/25 4/10/26 8/27/27 12/29/28
s off
f 4/31/29 5/33/30 9/61/31 8/62/32
s 6
f 5/32/33 14/34/34 15/35/35 9/37/36
s 1
f 7/30/4 10/28/3 6/63/37 3/64/38
s 5
f 7/44/39 12/29/28 11/46/40 1/65/41
f 3/66/42 13/3/25 12/29/28 7/44/39
s 3
f 28/8/43 17/39/9 22/48/12 26/55/44
s 2
f 28/6/45 27/7/46 18/41/6 17/40/5
s 4
f 24/51/19 18/42/18 27/2/47 25/56/48
s 6
f 15/35/35 14/34/34 6/67/49 10/68/50
f 16/69/51 15/35/35 10/68/50 2/70/52
s off
f 11/4/53 16/5/54 2/36/55 1/45/56
s 7
f 4/19/57 13/21/58 22/24/59 21/26/60
f 5/20/61 4/22/57 21/23/60 23/25/62
f 14/38/63 5/43/61 23/79/62 24/80/64
f 3/75/65 6/76/66 25/77/67 26/78/68
f 13/21/58 3/81/65 26/82/68 22/24/59
f 6/83/66 14/38/63 24/80/64 25/84/67
s off
f 8/57/69 9/58/70 30/59/71 29/60/72
f 16/71/73 11/72/74 32/73/75 31/74/76
g default
v 4.812404 1.610846 -50.084086
v 4.805861 1.610846 -50.096924
v 4.795669 1.610846 -50.107119
v 4.782827 1.610846 -50.113659
v 4.768592 1.610846 -50.115914
v 4.754357 1.610846 -50.113659
v 4.741515 1.610846 -50.107119
v 4.731323 1.610846 -50.096924
v 4.724780 1.610846 -50.084086
v 4.722525 1.610846 -50.069848
v 4.724780 1.610846 -50.055609
v 4.731323 1.610846 -50.042771
v 4.741515 1.610846 -50.032576
v 4.754357 1.610846 -50.026036
v 4.768592 1.610846 -50.023781
v 4.782827 1.610846 -50.026036
v 4.795669 1.610846 -50.032576
v 4.805861 1.610846 -50.042771
v 4.812404 1.610846 -50.055609
v 4.814658 1.610846 -50.069848
v 4.812404 2.698098 -50.084086
v 4.805861 2.698098 -50.096924
v 4.795669 2.698098 -50.107119
v 4.782827 2.698098 -50.113659
v 4.768592 2.698098 -50.115914
v 4.754357 2.698098 -50.113659
v 4.741515 2.698098 -50.107119
v 4.731323 2.698098 -50.096924
v 4.724780 2.698098 -50.084086
v 4.722525 2.698098 -50.069848
v 4.724780 2.698098 -50.055609
v 4.731323 2.698098 -50.042771
v 4.741515 2.698098 -50.032576
v 4.754357 2.698098 -50.026036
v 4.768592 2.698098 -50.023781
v 4.782827 2.698098 -50.026036
v 4.795669 2.698098 -50.032576
v 4.805861 2.698098 -50.042771
v 4.812404 2.698098 -50.055609
v 4.814658 2.698098 -50.069848
v 4.768592 1.610846 -50.069848
v 4.768592 2.698098 -50.069848
vt 0.377609 0.037458
vt 0.389483 0.037458
vt 0.389483 0.156214
vt 0.377609 0.156214
vt 0.401360 0.037458
vt 0.401360 0.156214
vt 0.413235 0.156214
vt 0.187597 0.037458
vt 0.187597 0.156214
vt 0.199473 0.037458
vt 0.199473 0.156214
vt 0.211348 0.037458
vt 0.211348 0.156214
vt 0.223225 0.037458
vt 0.223225 0.156214
vt 0.235099 0.037458
vt 0.235099 0.156214
vt 0.246976 0.037458
vt 0.246976 0.156214
vt 0.258852 0.037458
vt 0.258852 0.156214
vt 0.270727 0.037458
vt 0.270727 0.156214
vt 0.282604 0.037458
vt 0.282604 0.156214
vt 0.294479 0.037458
vt 0.294479 0.156214
vt 0.306354 0.037458
vt 0.306354 0.156214
vt 0.318230 0.037458
vt 0.318230 0.156214
vt 0.330105 0.037458
vt 0.330105 0.156214
vt 0.341982 0.037458
vt 0.341982 0.156214
vt 0.353856 0.037458
vt 0.353856 0.156214
vt 0.365732 0.037458
vt 0.365732 0.156214
vt 0.365732 0.037458
vt 0.365732 0.156214
vt 0.413235 0.037458
vt 0.425110 0.037458
vt 0.436986 0.037458
vt 0.448861 0.037458
vt 0.460738 0.037458
vt 0.472612 0.037458
vt 0.425110 0.156214
vt 0.436986 0.156214
vt 0.448861 0.156214
vt 0.460738 0.156214
vt 0.472612 0.156214
vt 0.484489 0.156214
vn 0.951056 0.000000 -0.309019
vn 0.809021 0.000000 -0.587780
vn 0.809021 0.000000 -0.587780
vn 0.951056 0.000000 -0.309019
vn 0.587790 0.000000 -0.809014
vn 0.587790 0.000000 -0.809014
vn 0.308922 0.000000 -0.951087
vn 0.308922 0.000000 -0.951087
vn 0.000000 0.000000 -1.000000
vn 0.000000 0.000000 -1.000000
vn -0.308922 0.000000 -0.951087
vn -0.308922 0.000000 -0.951087
vn -0.587796 0.000000 -0.809009
vn -0.587796 0.000000 -0.809009
vn -0.809009 0.000000 -0.587796
vn -0.809009 0.000000 -0.587796
vn -0.951052 0.000000 -0.309030
vn -0.951052 0.000000 -0.309030
vn -1.000000 0.000000 0.000000
vn -1.000000 0.000000 0.000000
vn -0.951052 0.000000 0.309030
vn -0.951052 0.000000 0.309030
vn -0.809009 0.000000 0.587796
vn -0.809009 0.000000 0.587796
vn -0.587796 0.000000 0.809009
vn -0.587796 0.000000 0.809009
vn -0.308922 0.000000 0.951087
vn -0.308922 0.000000 0.951087
vn 0.000000 0.000000 1.000000
vn 0.000000 0.000000 1.000000
vn 0.308922 0.000000 0.951087
vn 0.308922 0.000000 0.951087
vn 0.587790 0.000000 0.809014
vn 0.587790 0.000000 0.809014
vn 0.809021 0.000000 0.587780
vn 0.809021 0.000000 0.587780
vn 0.951056 0.000000 0.309019
vn 0.951056 0.000000 0.309019
vn 1.000000 0.000000 0.000000
vn 1.000000 0.000000 0.000000
vn 0.000000 -1.000000 -0.000002
vn 0.000000 -1.000000 -0.000002
vn 0.000000 -1.000000 -0.000000
vn 0.000000 -1.000000 0.000000
vn 0.000000 -1.000000 0.000000
vn 0.000000 -1.000000 0.000000
vn 0.000000 -1.000000 0.000000
vn 0.000000 -1.000000 0.000000
vn 0.000000 -1.000000 0.000000
vn 0.000000 -1.000000 0.000000
vn 0.000000 -1.000000 0.000000
vn 0.000000 -1.000000 0.000002
vn 0.000000 -1.000000 0.000002
vn 0.000000 -1.000000 0.000000
vn 0.000000 -1.000000 0.000000
vn 0.000000 -1.000000 0.000000
vn 0.000000 -1.000000 0.000000
vn 0.000000 -1.000000 0.000000
vn 0.000000 -1.000000 0.000000
vn 0.000000 -1.000000 0.000000
vn 0.000000 -1.000000 0.000000
vn 0.000000 1.000000 0.000000
vn 0.000000 1.000000 0.000000
vn 0.000000 1.000000 0.000000
vn 0.000000 1.000000 0.000000
vn 0.000000 1.000000 0.000000
vn 0.000000 1.000000 0.000000
vn 0.000000 1.000000 0.000000
vn 0.000000 1.000000 0.000000
vn 0.000000 1.000000 0.000000
vn 0.000000 1.000000 0.000000
vn 0.000000 1.000000 0.000000
vn 0.000000 1.000000 0.000000
vn 0.000000 1.000000 0.000000
vn 0.000000 1.000000 0.000000
vn 0.000000 1.000000 0.000000
vn 0.000000 1.000000 0.000000
vn 0.000000 1.000000 0.000000
vn 0.000000 1.000000 0.000000
vn 0.000000 1.000000 0.000000
vn 0.000000 1.000000 0.000000
vn 0.000000 1.000000 0.000000
s 1
g pCylinder1
usemtl initialShadingGroup
f 33/85/77 34/86/78 54/87/79 53/88/80
f 34/86/78 35/89/81 55/90/82 54/87/79
f 35/89/81 36/126/83 56/91/84 55/90/82
f 36/126/83 37/127/85 57/132/86 56/91/84
f 37/92/85 38/94/87 58/95/88 57/93/86
f 38/94/87 39/96/89 59/97/90 58/95/88
f 39/96/89 40/98/91 60/99/92 59/97/90
f 40/98/91 41/100/93 61/101/94 60/99/92
f 41/100/93 42/102/95 62/103/96 61/101/94
f 42/102/95 43/104/97 63/105/98 62/103/96
f 43/104/97 44/106/99 64/107/100 63/105/98
f 44/106/99 45/108/101 65/109/102 64/107/100
f 45/108/101 46/110/103 66/111/104 65/109/102
f 46/110/103 47/112/105 67/113/106 66/111/104
f 47/112/105 48/114/107 68/115/108 67/113/106
f 48/114/107 49/116/109 69/117/110 68/115/108
f 49/116/109 50/118/111 70/119/112 69/117/110
f 50/118/111 51/120/113 71/121/114 70/119/112
f 51/120/113 52/122/115 72/123/116 71/121/114
f 52/122/115 33/85/77 53/88/80 72/123/116
s 2
f 34/86/117 33/85/118 73/124/119
f 35/89/120 34/86/117 73/124/119
f 36/126/121 35/89/120 73/124/119
f 37/127/122 36/126/121 73/124/119
f 38/128/123 37/127/122 73/124/119
f 39/129/124 38/128/123 73/124/119
f 40/130/125 39/129/124 73/124/119
f 41/131/126 40/130/125 73/124/119
f 42/102/127 41/131/126 73/124/119
f 43/104/128 42/102/127 73/124/119
f 44/106/129 43/104/128 73/124/119
f 45/108/130 44/106/129 73/124/119
f 46/110/131 45/108/130 73/124/119
f 47/112/132 46/110/131 73/124/119
f 48/114/133 47/112/132 73/124/119
f 49/116/134 48/114/133 73/124/119
f 50/118/135 49/116/134 73/124/119
f 51/120/136 50/118/135 73/124/119
f 52/122/137 51/120/136 73/124/119
f 33/85/118 52/122/137 73/124/119
s 3
f 53/88/138 54/87/139 74/125/140
f 54/87/139 55/90/141 74/125/140
f 55/90/141 56/91/142 74/125/140
f 56/91/142 57/132/143 74/125/140
f 57/132/143 58/133/144 74/125/140
f 58/133/144 59/134/145 74/125/140
f 59/134/145 60/135/146 74/125/140
f 60/135/146 61/136/147 74/125/140
f 61/136/147 62/137/148 74/125/140
f 62/103/148 63/105/149 74/125/140
f 63/105/149 64/107/150 74/125/140
f 64/107/150 65/109/151 74/125/140
f 65/109/151 66/111/152 74/125/140
f 66/111/152 67/113/153 74/125/140
f 67/113/153 68/115/154 74/125/140
f 68/115/154 69/117/155 74/125/140
f 69/117/155 70/119/156 74/125/140
f 70/119/156 71/121/157 74/125/140
f 71/121/157 72/123/158 74/125/140
f 72/123/158 53/88/138 74/125/140
g default
v 3.766848 2.579128 -50.115428
v 5.713266 2.579128 -50.115428
v 3.766848 3.074429 -50.115428
v 5.713266 3.074429 -50.115428
v 3.766848 3.074429 -50.186247
v 5.713266 3.074429 -50.186247
v 3.766848 2.579128 -50.186247
v 5.713266 2.579128 -50.186247
vt 0.761062 0.020680
vt 0.795818 0.020680
vt 0.795818 0.263776
vt 0.761062 0.263776
vt 0.596443 0.431425
vt 0.975607 0.431425
vt 0.975607 0.445220
vt 0.596443 0.445220
vt 0.596443 0.445220
vt 0.975607 0.445220
vt 0.795818 0.020680
vt 0.761062 0.020680
vt 0.761062 0.263776
vt 0.795818 0.263776
vt 0.603652 0.548409
vt 0.971433 0.548409
vt 0.971433 0.641997
vt 0.603652 0.641997
vt 0.603652 0.641997
vt 0.971433 0.641997
vt 0.971433 0.548409
vt 0.603652 0.548409
vt 0.975607 0.431425
vt 0.596443 0.431425
vn 0.000000 0.000000 1.000000
vn 0.000000 0.000000 1.000000
vn 0.000000 0.000000 1.000000
vn 0.000000 0.000000 1.000000
vn 0.000000 1.000000 0.000000
vn 0.000000 1.000000 0.000000
vn 0.000000 1.000000 0.000000
vn 0.000000 1.000000 0.000000
vn 0.000000 0.000000 -1.000000
vn 0.000000 0.000000 -1.000000
vn 0.000000 0.000000 -1.000000
vn 0.000000 0.000000 -1.000000
vn 0.000000 -1.000000 0.000000
vn 0.000000 -1.000000 0.000000
vn 0.000000 -1.000000 0.000000
vn 0.000000 -1.000000 0.000000
vn 1.000000 0.000000 0.000000
vn 1.000000 0.000000 0.000000
vn 1.000000 0.000000 0.000000
vn 1.000000 0.000000 0.000000
vn -1.000000 0.000000 0.000000
vn -1.000000 0.000000 0.000000
vn -1.000000 0.000000 0.000000
vn -1.000000 0.000000 0.000000
s off
g pCube373
usemtl initialShadingGroup
f 75/152/159 76/153/160 78/154/161 77/155/162
f 77/142/163 78/143/164 80/144/165 79/145/166
f 79/156/167 80/157/168 82/158/169 81/159/170
f 81/146/171 82/147/172 76/160/173 75/161/174
f 76/138/175 82/139/176 80/140/177 78/141/178
f 81/148/179 75/149/180 77/150/181 79/151/182
