# This file uses centimeters as units for non-parametric coordinates.

mtllib Wall1.mtl
g default
v 110.985583 2.540862 -69.861321
v 133.846816 2.540862 -69.861321
v 110.985583 41.463805 -69.861321
v 133.846816 41.463805 -69.861321
v 110.985583 41.463805 -93.831807
v 133.846816 41.463805 -93.831807
v 110.985583 2.540862 -93.831807
v 133.846816 2.540862 -93.831807
v 131.469691 2.540862 -69.861321
v 131.469691 41.463805 -69.861321
v 131.469691 2.540862 -93.831807
v 131.469691 2.540862 -69.861321
v 133.846816 2.540862 -69.861321
v 133.846816 41.463805 -69.861321
v 131.469691 41.463805 -69.861321
v 131.469691 2.540862 33.247312
v 133.846816 2.540862 33.247312
v 133.846816 41.463805 33.247312
v 131.469691 41.463805 33.247312
v 110.985583 54.915607 -69.861321
v 131.469691 54.915607 -69.861321
v 110.985583 54.915607 -93.831807
v 133.846816 54.915603 -69.861321
v 133.846816 54.915603 -93.831807
v 131.469691 54.915603 -69.861321
v 133.846816 54.915603 -69.861321
v 131.469691 54.915603 33.247312
v 133.846816 54.915603 33.247312
v 110.985583 41.463805 -103.789753
v 131.469691 41.463805 -103.789771
v 131.469691 2.540862 -103.789753
v 110.985583 2.540862 -103.789753
v 133.846816 41.463805 -103.789753
v 133.846816 2.540862 -103.789753
v 110.985583 54.915607 -103.789753
v 131.469691 54.915607 -103.789753
v 133.846816 54.915603 -103.789753
v 110.985583 54.915607 -69.861321
v 131.469691 54.915607 -69.861321
v 110.985583 54.915607 -93.831807
v 133.846816 54.915603 -69.861321
v 133.846816 54.915603 -93.831807
v 131.469691 54.915607 -103.789753
v 110.985583 54.915607 -103.789753
v 133.846816 54.915603 -103.789753
v 131.469691 54.915603 -69.861321
v 133.846816 54.915603 -69.861321
v 131.469691 54.915603 33.247312
v 133.846816 54.915603 33.247312
v 131.469691 2.540862 33.247312
v 133.846816 2.540862 33.247312
v 133.846816 41.463805 33.247312
v 131.469691 41.463805 33.247312
v 133.824249 2.540862 33.247312
v 133.824249 41.463805 33.247312
v 110.985583 78.067633 -69.861321
v 131.469691 78.067633 -69.861321
v 110.985583 78.067633 -93.831807
v 133.846829 78.067633 -69.861321
v 133.846829 78.067633 -93.831807
v 131.469691 78.067633 -103.789753
v 110.985583 78.067633 -103.789753
v 133.846829 78.067633 -103.789753
v 131.469691 78.067633 -69.861321
v 133.846816 78.067633 -69.861321
v 131.469691 78.067633 33.247312
v 133.846816 78.067633 33.247312
v 110.865328 78.097692 -69.861321
v 131.349423 78.097692 -69.861321
v 131.349423 78.097692 -93.831807
v 110.865328 78.097692 -93.831807
v 133.726561 78.097692 -69.861321
v 133.726561 78.097692 -93.831807
v 131.349423 78.097692 -103.789753
v 110.865328 78.097692 -103.789753
v 133.726561 78.097692 -103.789753
v 133.726561 54.945667 -69.861321
v 133.726561 54.945667 -93.831807
v 110.861611 2.540862 -93.831807
v 131.345732 2.540862 -93.831807
v 131.345732 2.540862 -69.861321
v 110.861611 2.540862 -69.861321
v 131.520298 78.017020 -69.760111
v 133.897410 78.017020 -69.760111
v 131.520298 78.017020 33.348526
v 133.897410 78.017020 33.348526
v 133.897410 54.864990 -69.760111
v 133.897410 54.864990 33.348526
vt 0.035881 0.023778
vt 0.625000 0.000000
vt 0.193445 0.023778
vt 0.625000 0.250000
vt 0.375000 0.500000
vt 0.625000 0.500000
vt 0.678260 0.694798
vt 0.625000 0.750000
vt 0.678260 0.944798
vt 0.811616 0.174125
vt 0.443316 0.649786
vt 0.539272 0.649786
vt 0.539272 0.805598
vt 0.443316 0.805598
vt 0.594984 0.000000
vt 0.898244 0.944798
vt 0.594984 0.250000
vt 0.193445 0.323173
vt 0.898244 0.694798
vt 0.594984 0.000000
vt 0.625000 0.000000
vt 0.625000 0.250000
vt 0.594984 0.250000
vt 0.909772 0.174125
vt 0.909772 0.059263
vt 0.811616 0.059263
vt 0.594984 0.250000
vt 0.375000 0.250000
vt 0.594984 0.250000
vt 0.594984 0.500000
vt 0.375000 0.500000
vt 0.625000 0.250000
vt 0.625000 0.500000
vt 0.625000 0.250000
vt 0.594984 0.250000
vt 0.594984 0.250000
vt 0.625000 0.250000
vt 0.811598 0.059263
vt 0.909754 0.059263
vt 0.035881 0.323173
vt 0.594984 0.000000
vt 0.909754 0.174125
vt 0.811598 0.174125
vt 0.594984 0.250000
vt 0.625000 0.500000
vt 0.625000 0.750000
vt 0.035881 0.323173
vt 0.193445 0.323173
vt 0.193445 0.023778
vt 0.375000 0.250000
vt 0.594984 0.250000
vt 0.375000 0.500000
vt 0.625000 0.250000
vt 0.625000 0.500000
vt 0.625000 0.250000
vt 0.594984 0.250000
vt 0.594984 0.250000
vt 0.625000 0.250000
vt 0.594984 0.000000
vt 0.594984 0.250000
vt 0.594984 0.250000
vt 0.625000 0.750000
vt 0.625000 0.750000
vt 0.625000 0.500000
vt 0.375000 0.500000
vt 0.594984 0.500000
vt 0.625000 0.500000
vt 0.035881 0.023778
vt 0.211730 0.323173
vt 0.211730 0.023778
vt 0.193445 0.426645
vt 0.375000 0.250000
vt 0.594984 0.250000
vt 0.375000 0.500000
vt 0.625000 0.250000
vt 0.921163 0.174125
vt 0.625000 0.250000
vt 0.594984 0.250000
vt 0.594984 0.250000
vt 0.625000 0.250000
vt 0.594984 0.000000
vt 0.594984 0.250000
vt 0.594984 0.250000
vt 0.625000 0.750000
vt 0.625000 0.750000
vt 0.625000 0.500000
vt 0.539272 0.649786
vt 0.443316 0.649786
vt 0.443316 0.805598
vt 0.539272 0.805598
vt 0.443316 0.649786
vt 0.443316 0.805598
vt 0.030563 0.805598
vt 0.030563 0.649786
vt 0.443316 0.805598
vt 0.443316 0.649786
vt 0.030563 0.649786
vt 0.030563 0.805598
vt 0.443316 0.859446
vt 0.539272 0.859446
vt 0.539272 0.859446
vt 0.443316 0.859446
vt 0.030563 0.859446
vt 0.443316 0.859446
vt 0.443316 0.859446
vt 0.030563 0.859446
vt 0.579135 0.805598
vt 0.579135 0.649786
vt 0.579135 0.649786
vt 0.579135 0.805598
vt 0.579135 0.859446
vt 0.579135 0.859446
vt 0.539272 0.859446
vt 0.443316 0.859446
vt 0.443316 0.952126
vt 0.539272 0.952126
vt 0.443316 0.859446
vt 0.539272 0.859446
vt 0.539272 0.952126
vt 0.443316 0.952126
vt 0.579135 0.859446
vt 0.579135 0.952126
vt 0.579135 0.859446
vt 0.579135 0.952126
vt 0.443316 0.859446
vt 0.030563 0.859446
vt 0.030563 0.952126
vt 0.443316 0.952126
vt 0.030563 0.859446
vt 0.443316 0.859446
vt 0.443316 0.952126
vt 0.030563 0.952126
vt 0.035881 0.426645
vt 0.035881 0.426645
vt 0.193445 0.426645
vt 0.211730 0.426645
vt 0.193445 0.323173
vt 0.211730 0.323173
vt 0.211730 0.426645
vt 0.193445 0.426645
vt 0.193445 0.023778
vt 0.211556 0.023778
vt 0.211556 0.323173
vt 0.035881 0.426645
vt 0.193445 0.426645
vt 0.193445 0.604730
vt 0.035881 0.604730
vt 0.193445 0.426645
vt 0.035881 0.426645
vt 0.035881 0.604730
vt 0.193445 0.604730
vt 0.211730 0.426645
vt 0.211730 0.604730
vt 0.193445 0.426645
vt 0.211730 0.426645
vt 0.211730 0.604730
vt 0.193445 0.604730
vt 0.375000 0.250000
vt 0.594984 0.250000
vt 0.375000 0.500000
vt 0.678260 0.694798
vt 0.898244 0.694798
vt 0.898244 0.944798
vt 0.678260 0.944798
vt 0.625000 0.250000
vt 0.625000 0.250000
vt 0.594984 0.250000
vt 0.594984 0.250000
vt 0.625000 0.250000
vt 0.594984 0.000000
vt 0.594984 0.250000
vt 0.594984 0.250000
vt 0.625000 0.750000
vt 0.625000 0.750000
vt 0.625000 0.500000
vt 0.443316 0.859446
vt 0.539272 0.859446
vt 0.539272 0.952126
vt 0.443316 0.952126
vt 0.030563 0.859446
vt 0.443316 0.859446
vt 0.443316 0.952126
vt 0.030563 0.952126
vt 0.921163 0.059263
vt 0.910348 0.174125
vt 0.910348 0.059263
vt 0.921739 0.059263
vt 0.921739 0.174125
vt 0.910348 0.174125
vt 0.921739 0.174125
vt 0.921739 0.668204
vt 0.910348 0.668204
vt 0.921981 0.174610
vt 0.910591 0.174610
vt 0.910591 0.668689
vt 0.921981 0.668689
vt 0.812192 0.059263
vt 0.812192 0.011546
vt 0.910348 0.011546
vt 0.921739 0.011546
vt 0.909772 0.011546
vt 0.811616 0.011546
vt 0.921163 0.011546
vn 0.000000 0.000000 1.000000
vn 0.000000 0.000000 1.000000
vn 0.000000 0.000000 1.000000
vn 0.000000 0.000000 1.000000
vn 0.000000 1.000000 0.000000
vn 0.000000 1.000000 0.000000
vn 0.000000 1.000000 0.000000
vn 0.000000 1.000000 0.000000
vn -0.000000 0.000000 -1.000000
vn 0.000000 0.000000 -1.000000
vn 0.000000 -0.000000 -1.000000
vn -0.000000 -0.000000 -1.000000
vn 0.000000 -1.000000 0.000000
vn 0.000000 -1.000000 0.000000
vn 0.000000 -1.000000 0.000000
vn 0.000000 -1.000000 0.000000
vn 1.000000 0.000000 0.000000
vn 1.000000 0.000000 0.000000
vn 1.000000 0.000000 0.000000
vn 1.000000 0.000000 0.000000
vn -1.000000 0.000000 0.000000
vn -1.000000 0.000000 0.000000
vn -1.000000 0.000000 0.000000
vn -1.000000 0.000000 0.000000
vn 0.000000 1.000000 0.000000
vn 0.000000 1.000000 0.000000
vn 0.000003 0.000000 -1.000000
vn 0.000004 -0.000000 -1.000000
vn 0.000000 -1.000000 0.000000
vn 0.000000 -1.000000 0.000000
vn 0.000000 -1.000000 0.000000
vn 0.000000 -1.000000 0.000000
vn 0.000000 0.000000 0.000000
vn 0.000000 0.000000 0.000000
vn 0.000000 0.000000 0.000000
vn 0.000000 0.000000 0.000000
vn 0.000000 0.000000 0.000000
vn 0.000000 0.000000 0.000000
vn 0.000000 0.000000 0.000000
vn 0.000000 0.000000 0.000000
vn 0.000000 0.000000 0.000000
vn 0.000000 0.000000 0.000000
vn 0.000000 0.000000 0.000000
vn 0.000000 0.000000 0.000000
vn 0.000000 0.000000 0.000000
vn 0.000000 0.000000 0.000000
vn 0.000000 0.000000 0.000000
vn 0.000000 0.000000 0.000000
vn 0.000000 -1.000000 0.000000
vn 0.000000 -1.000000 0.000000
vn 0.000000 -1.000000 0.000000
vn 0.000000 -1.000000 0.000000
vn 1.000000 0.000000 0.000000
vn 1.000000 0.000000 0.000000
vn 1.000000 0.000000 0.000000
vn 1.000000 0.000000 0.000000
vn 0.000000 1.000000 0.000000
vn 0.000000 1.000000 0.000000
vn 0.000000 1.000000 0.000000
vn 0.000000 1.000000 0.000000
vn -1.000000 0.000000 0.000000
vn -1.000000 0.000000 0.000000
vn -1.000000 0.000000 0.000000
vn -1.000000 0.000000 0.000000
vn 0.000000 0.000000 1.000000
vn 0.000000 0.000000 1.000000
vn -0.000000 0.000001 -1.000000
vn -0.000000 0.000001 -1.000000
vn -1.000000 0.000000 0.000000
vn -1.000000 0.000000 0.000000
vn 0.000000 0.000000 1.000000
vn 0.000000 0.000000 1.000000
vn 1.000000 0.000000 0.000000
vn 1.000000 0.000000 0.000000
vn 0.000003 0.000001 -1.000000
vn 0.000000 0.000000 -1.000000
vn 0.000000 0.000000 -1.000000
vn 0.000000 0.000000 -1.000000
vn 0.000000 0.000000 -1.000000
vn -1.000000 0.000000 0.000000
vn -1.000000 0.000000 0.000000
vn 0.000000 0.000000 1.000000
vn 0.000000 0.000000 1.000000
vn 0.000000 0.000000 1.000000
vn 0.000000 0.000000 1.000000
vn 1.000000 0.000000 0.000000
vn 1.000000 0.000000 0.000000
vn 0.000000 -1.000000 0.000000
vn 0.000000 -1.000000 0.000000
vn 0.000000 -1.000000 0.000000
vn -1.000000 0.000000 0.000000
vn -1.000000 0.000000 0.000000
vn 1.000000 0.000000 0.000000
vn 1.000000 0.000000 0.000000
vn 0.000000 -1.000000 0.000000
vn -1.000000 0.000000 0.000000
vn 0.000000 1.000000 0.000000
vn 0.000000 1.000000 0.000000
vn 0.000000 1.000000 0.000000
vn 1.000000 0.000000 0.000000
vn 0.000000 0.000000 0.000000
vn 0.000000 0.000000 0.000000
vn 0.000000 0.000000 0.000000
vn 0.000000 0.000000 0.000000
vn 0.000000 0.000000 0.000000
vn 0.000000 0.000000 0.000000
vn 0.000000 0.000000 0.000000
vn 0.000000 0.000000 0.000000
vn 0.000000 0.000000 0.000000
vn 0.000000 0.000000 0.000000
vn 0.000000 0.000000 0.000000
vn 0.000000 0.000000 0.000000
vn 0.000000 0.000000 0.000000
vn 0.000000 0.000000 0.000000
vn 0.000000 0.000000 0.000000
vn 0.000000 0.000000 0.000000
vn 0.000000 0.000000 0.000000
vn 0.000000 0.000000 0.000000
vn 0.000000 0.000000 0.000000
vn 0.000000 0.000000 0.000000
vn 0.000000 0.000000 0.000000
vn 0.000000 0.000000 0.000000
vn 0.000000 0.000000 0.000000
vn 0.000000 0.000000 0.000000
vn 0.000000 0.000000 0.000000
vn 0.000000 0.000000 0.000000
vn 0.000000 0.000000 0.000000
vn 0.000000 0.000000 0.000000
vn 0.000000 0.000000 0.000000
vn 0.000000 0.000000 0.000000
vn 0.000000 0.000000 0.000000
vn 0.000000 0.000000 0.000000
vn 0.000000 0.000000 0.000000
vn 0.000000 0.000000 0.000000
vn 0.000000 0.000000 0.000000
vn 0.000000 0.000000 0.000000
vn 0.000000 0.000000 0.000000
vn 0.000000 0.000000 0.000000
vn 0.000000 0.000000 0.000000
vn 0.000000 0.000000 0.000000
vn 0.000000 0.000000 0.000000
vn 0.000000 0.000000 0.000000
vn 0.000000 0.000000 0.000000
vn 0.000000 0.000000 0.000000
vn 0.000000 0.000000 0.000000
vn 0.000000 0.000000 0.000000
vn 0.000000 0.000000 0.000000
vn 0.000000 0.000000 0.000000
vn 0.000000 0.000000 0.000000
vn 0.000000 0.000000 0.000000
vn 0.000000 0.000000 0.000000
vn 0.000000 0.000000 0.000000
vn 0.000000 0.000000 0.000000
vn 0.000000 0.000000 0.000000
vn 0.000000 0.000000 0.000000
vn 0.000000 0.000000 0.000000
vn 0.000000 0.000000 0.000000
vn 0.000000 0.000000 0.000000
vn 0.000000 0.000000 0.000000
vn 0.000000 0.000000 0.000000
vn 0.000000 0.000000 0.000000
vn 0.000000 0.000000 0.000000
vn 0.000000 0.000000 0.000000
vn 0.000000 0.000000 0.000000
vn 0.000000 0.000000 1.000000
vn 0.000000 0.000000 1.000000
vn 0.000000 0.000000 1.000000
vn 0.000000 0.000000 1.000000
vn 0.000000 0.000000 1.000000
vn 0.000000 0.000000 1.000000
vn 0.000000 0.000000 1.000000
vn 0.000000 0.000000 1.000000
vn -1.000000 0.000000 0.000000
vn -1.000000 0.000000 0.000000
vn -1.000000 0.000000 0.000000
vn -1.000000 0.000000 0.000000
vn 0.000002 0.000000 1.000000
vn 0.000002 0.000000 1.000000
vn 1.000000 0.000000 0.000000
vn 1.000000 0.000000 0.000000
vn 1.000000 0.000000 0.000000
vn 1.000000 0.000000 0.000000
vn 0.000000 0.000000 -1.000000
vn 0.000000 0.000000 -1.000000
vn 0.000000 0.000000 -1.000000
vn 0.000000 0.000000 -1.000000
vn -1.000000 0.000000 0.000000
vn -1.000000 0.000000 0.000000
vn 1.000000 -0.000001 0.000000
vn 1.000000 -0.000001 0.000000
vn 1.000000 -0.000001 0.000000
vn 1.000000 -0.000001 0.000000
vn 0.000000 0.000000 -1.000000
vn 0.000000 0.000000 -1.000000
vn 0.000000 0.000000 -1.000000
vn 0.000000 0.000000 -1.000000
vn 0.000000 0.000000 -1.000000
vn 0.000000 0.000000 -1.000000
vn -1.000000 0.000000 0.000000
vn -1.000000 0.000000 0.000000
vn -1.000000 0.000000 0.000000
vn -1.000000 0.000000 0.000000
vn 0.000000 0.000000 1.000000
vn 0.000000 0.000000 1.000000
vn 0.000000 0.000000 1.000000
vn 0.000000 0.000000 1.000000
vn 1.000000 0.000000 0.000000
vn 1.000000 0.000000 0.000000
vn 1.000000 0.000000 0.000000
vn 1.000000 0.000000 0.000000
vn 0.000000 0.000000 1.000000
vn 0.000000 0.000000 1.000000
vn 0.000000 0.000000 1.000000
vn 0.000000 0.000000 1.000000
vn -0.242500 -0.970151 0.000000
vn -0.242500 -0.970151 0.000000
vn -0.242500 -0.970151 0.000000
vn -0.242500 -0.970151 0.000000
vn 0.000000 0.000000 1.000000
vn 0.000000 0.000000 1.000000
vn 0.000000 0.000000 1.000000
vn 0.000000 0.000000 1.000000
vn 0.000000 0.000000 -1.000000
vn 0.000000 0.000000 -1.000000
vn 0.000000 0.000000 -1.000000
vn 0.000000 0.000000 -1.000000
vn -0.242501 -0.970151 0.000000
vn -0.242501 -0.970151 0.000000
vn -0.242501 -0.970151 0.000000
vn -0.242501 -0.970151 0.000000
vn 0.242473 0.970158 0.000000
vn 0.242473 0.970158 0.000000
vn 0.242473 0.970158 0.000000
vn 0.242473 0.970158 0.000000
vn 0.000000 0.000000 -1.000000
vn 0.000000 0.000000 -1.000000
vn 0.000000 0.000000 -1.000000
vn 0.000000 0.000000 -1.000000
vn 0.242536 0.970142 0.000000
vn 0.242536 0.970142 0.000000
vn 0.242536 0.970142 0.000000
vn 0.242536 0.970142 0.000000
vn -0.000015 0.000000 1.000000
vn -0.000015 0.000000 1.000000
vn -0.000015 0.000000 1.000000
vn -0.000015 0.000000 1.000000
vn -0.000010 0.000000 -1.000000
vn -0.000010 0.000000 -1.000000
vn -0.000010 0.000000 -1.000000
vn -0.000010 0.000000 -1.000000
vn 0.000000 0.000000 1.000000
vn 0.000000 0.000000 0.000000
vn 0.000000 0.000000 1.000000
vn 0.000000 0.000000 0.000000
vn 0.000000 -1.000000 0.000000
vn 0.000000 -1.000000 0.000000
vn 0.000000 -1.000000 0.000000
vn 0.000000 -1.000000 0.000000
vn 0.000000 0.000000 -0.000000
vn 0.000000 0.000000 -1.000000
vn 0.000000 0.000000 -0.000000
vn 0.000000 0.000000 -1.000000
vn 0.000000 1.000000 0.000000
vn 0.000000 1.000000 0.000000
vn 0.000000 1.000000 0.000000
vn 0.000000 1.000000 0.000000
vn 0.000000 0.894397 0.447275
vn 0.000000 0.894396 0.447275
vn 0.000000 0.894396 0.447275
vn 0.000000 0.894397 0.447275
vn 0.707173 0.707041 0.000000
vn 0.707173 0.707041 0.000000
vn 0.707173 0.707041 0.000000
vn 0.707173 0.707041 0.000000
vn 0.000000 -0.894403 -0.447261
vn 0.000000 -0.894403 -0.447261
vn 0.000000 -0.894403 -0.447262
vn 0.000000 -0.894403 -0.447262
vn -0.707246 -0.706967 0.000000
vn -0.707246 -0.706967 0.000000
vn -0.707246 -0.706967 0.000000
vn -0.707246 -0.706967 0.000000
vn 0.894464 0.000000 -0.447140
vn 0.894464 0.000000 -0.447140
vn 0.894464 0.000000 -0.447140
vn 0.894464 0.000000 -0.447140
vn -0.894476 0.000000 0.447116
vn -0.894476 0.000000 0.447116
vn -0.894476 0.000000 0.447116
vn -0.894476 0.000000 0.447116
s 1
g pCube4
usemtl initialShadingGroup
f 1/1/1 9/3/2 10/18/3 3/40/4
s 2
f 68/10/5 69/24/6 70/25/7 71/26/8
s 3
f 29/47/9 30/48/10 31/49/11 32/68/12
s off
f 79/38/13 80/39/14 81/42/15 82/43/16
s 4
f 2/11/17 8/12/18 6/13/19 4/14/20
s 5
f 7/87/21 1/88/22 3/89/23 5/90/24
s 2
f 70/25/7 69/24/6 72/76/25 73/184/26
s 3
f 31/49/11 30/48/10 33/69/27 34/70/28
s 6
f 9/185/29 11/186/30 8/187/31 2/188/32
s off
f 9/15/33 2/2/34 13/21/35 12/20/36
f 2/2/37 4/4/38 14/22/39 13/21/40
f 4/4/41 10/17/42 15/23/43 14/22/44
f 10/17/45 9/15/46 12/20/47 15/23/48
f 12/189/49 13/190/50 17/191/51 16/192/52
s 7
f 13/91/53 14/92/54 18/93/55 17/94/56
s off
f 84/193/57 83/194/58 85/195/59 86/196/60
s 8
f 15/95/61 12/96/62 16/97/63 19/98/64
s 1
f 3/40/4 10/18/3 21/71/65 20/133/66
s 3
f 30/48/10 29/47/9 35/134/67 36/135/68
s 5
f 5/90/24 3/89/23 20/99/69 22/100/70
s 1
f 10/17/3 4/4/71 23/32/72 21/29/65
s 4
f 4/14/20 6/13/19 24/101/73 23/102/74
s 3
f 33/69/27 30/48/10 36/135/68 37/136/75
s off
f 14/22/76 15/23/77 25/35/78 26/34/79
s 8
f 15/95/61 19/98/64 27/103/80 25/104/81
s off
f 19/137/82 18/138/83 28/139/84 27/140/85
s 7
f 18/93/55 14/92/54 26/105/86 28/106/87
s 6
f 11/186/30 7/197/88 32/198/89 31/199/90
s 5
f 7/87/21 5/90/24 29/107/91 32/108/92
s 4
f 6/13/19 8/12/18 34/109/93 33/110/94
s 6
f 8/187/31 11/186/30 31/199/90 34/200/95
s 5
f 5/90/24 22/100/70 35/111/96 29/107/91
s 2
f 71/26/8 70/25/7 74/201/97 75/202/98
f 70/25/7 73/184/26 76/203/99 74/201/97
s 4
f 24/101/73 6/13/19 33/110/94 37/112/100
s off
f 20/28/101 21/29/102 39/51/103 38/50/104
f 22/31/105 20/28/106 38/50/107 40/52/108
f 21/29/109 23/32/110 41/53/111 39/51/112
f 23/32/113 24/33/114 42/54/115 41/53/116
f 36/34/117 35/35/118 44/56/119 43/55/120
f 35/35/121 22/36/122 40/57/123 44/56/124
f 24/36/125 37/37/126 45/58/127 42/57/128
f 37/37/129 36/34/130 43/55/131 45/58/132
f 26/41/133 25/44/134 46/60/135 47/59/136
f 25/44/137 27/27/138 48/61/139 46/60/140
f 27/8/141 28/46/142 49/63/143 48/62/144
f 28/46/145 26/45/146 47/64/147 49/63/148
f 16/5/149 17/31/150 51/52/151 50/65/152
f 17/31/153 18/30/154 52/66/155 51/52/156
f 18/30/157 19/33/158 53/54/159 52/66/160
f 19/33/161 16/6/162 50/67/163 53/54/164
f 16/141/165 54/142/166 55/143/167 19/137/168
s 9
f 38/144/169 39/145/170 57/146/171 56/147/172
s 10
f 40/113/173 38/114/174 56/115/175 58/116/176
s 9
f 39/51/170 41/53/177 59/75/178 57/73/171
s off
f 77/176/179 78/177/180 73/178/181 72/179/182
s 11
f 43/148/183 44/149/184 62/150/185 61/151/186
s 10
f 44/121/187 40/113/173 58/116/176 62/122/188
s off
f 42/118/189 45/123/190 63/124/191 60/119/192
s 11
f 45/152/193 43/148/183 61/151/186 63/153/194
s off
f 47/59/195 46/60/196 64/82/197 65/81/198
f 46/125/199 48/126/200 66/127/201 64/128/202
f 48/154/203 49/155/204 67/156/205 66/157/206
f 88/180/207 87/181/208 84/182/209 86/183/210
f 56/72/211 57/73/212 69/159/213 68/158/214
f 58/74/215 56/72/216 68/158/217 71/160/218
f 57/7/219 59/19/220 72/162/221 69/161/222
f 61/19/223 62/16/224 75/163/225 74/162/226
f 62/16/227 58/9/228 71/164/229 75/163/230
f 60/9/231 63/7/232 76/161/233 73/164/234
f 63/73/235 61/75/236 74/165/237 76/159/238
f 41/77/239 42/78/240 78/167/241 77/166/242
f 42/78/243 60/79/244 73/168/245 78/167/246
f 59/79/247 41/80/248 77/169/249 72/168/250
f 7/81/251 11/82/252 80/171/253 79/170/254
f 11/82/255 9/83/256 81/172/257 80/171/258
f 9/84/259 1/85/260 82/174/261 81/173/262
f 1/85/263 7/86/264 79/175/265 82/174/266
f 65/117/267 64/118/268 83/177/269 84/176/270
f 64/118/271 66/119/272 85/178/273 83/177/274
f 66/120/275 67/117/276 86/176/277 85/179/278
f 49/129/279 47/130/280 87/181/281 88/180/282
f 47/130/283 65/131/284 84/182/285 87/181/286
f 67/132/287 49/129/288 88/180/289 86/183/290
