# This file uses centimeters as units for non-parametric coordinates.

mtllib WallForAirPort.mtl
g default
v -11.845369 -0.072614 -31.788416
v 24.575529 -0.072614 -31.788416
v -11.845369 11.325829 -31.788416
v 24.575529 11.325829 -31.788416
v -11.845369 11.325829 -32.103115
v 24.575529 11.325829 -32.103115
v -11.845369 -0.072614 -32.103115
v 24.575529 -0.072614 -32.103115
vt 0.020105 0.643133
vt 0.151510 0.643133
vt 0.168611 0.655893
vt 0.291898 0.655893
vt 0.291898 0.779181
vt 0.168611 0.779181
vt 0.168611 0.779181
vt 0.291898 0.779181
vt 0.291898 0.655893
vt 0.168611 0.655893
vt 0.151510 0.774538
vt 0.020105 0.774538
vt 0.151511 0.643133
vt 0.020106 0.643133
vt 0.020504 0.800156
vt 0.206806 0.800156
vt 0.206806 0.986457
vt 0.020504 0.986457
vt 0.020504 0.986457
vt 0.206806 0.986457
vt 0.206806 0.800156
vt 0.020504 0.800156
vt 0.020106 0.774538
vt 0.151511 0.774538
vn 0.000000 0.000000 1.000000
vn 0.000000 0.000000 1.000000
vn 0.000000 0.000000 1.000000
vn 0.000000 0.000000 1.000000
vn 0.000000 1.000000 0.000000
vn 0.000000 1.000000 0.000000
vn 0.000000 1.000000 0.000000
vn 0.000000 1.000000 0.000000
vn 0.000000 0.000000 -1.000000
vn 0.000000 0.000000 -1.000000
vn 0.000000 0.000000 -1.000000
vn 0.000000 0.000000 -1.000000
vn 0.000000 -1.000000 0.000000
vn 0.000000 -1.000000 0.000000
vn 0.000000 -1.000000 0.000000
vn 0.000000 -1.000000 0.000000
vn 1.000000 0.000000 0.000000
vn 1.000000 0.000000 0.000000
vn 1.000000 0.000000 0.000000
vn 1.000000 0.000000 0.000000
vn -1.000000 0.000000 0.000000
vn -1.000000 0.000000 0.000000
vn -1.000000 0.000000 0.000000
vn -1.000000 0.000000 0.000000
s off
g pCube806
usemtl initialShadingGroup
f 1/15/1 2/16/2 4/17/3 3/18/4
f 3/3/5 4/4/6 6/5/7 5/6/8
f 5/19/9 6/20/10 8/21/11 7/22/12
f 7/7/13 8/8/14 2/9/15 1/10/16
f 2/1/17 8/2/18 6/11/19 4/12/20
f 7/13/21 1/14/22 3/23/23 5/24/24
