# This file uses centimeters as units for non-parametric coordinates.

mtllib T1.mtl
g default
v -71.749593 18.461868 48.636837
v -25.470074 18.461868 48.636837
v -71.749593 19.769820 48.636837
v -25.470074 19.769820 48.636837
v -71.749593 19.769820 39.109360
v -25.470074 19.769820 39.109360
v -71.749593 18.461868 39.109360
v -25.470074 18.461868 39.109360
v -27.385753 18.461868 39.109360
v -27.385753 18.461868 48.636837
v -27.385753 19.769820 48.636837
v -27.385753 19.769820 39.109360
v -27.385753 3.434216 39.109360
v -25.470074 3.434216 39.109360
v -25.470074 3.434216 48.636837
v -27.385753 3.434216 48.636837
vt 0.131314 0.288901
vt 0.879940 0.288901
vt 0.879940 0.310972
vt 0.131314 0.310972
vt 0.131314 0.310972
vt 0.879940 0.310972
vt 0.879940 0.288901
vt 0.131314 0.288901
vt 0.363706 0.354019
vt 0.912267 0.288901
vt 0.048164 0.904101
vt 0.298122 0.904101
vt 0.298122 0.938416
vt 0.048164 0.938416
vt 0.912267 0.310972
vt 0.912267 0.310972
vt 0.912267 0.288901
vt 0.912267 0.035314
vt 0.879940 0.035314
vt 0.879940 0.035314
vt 0.912267 0.035314
vt 0.935134 0.471657
vt 0.935134 0.354019
vt 0.298122 0.904101
vt 0.048164 0.904101
vt 0.048164 0.938416
vt 0.298122 0.938416
vt 0.048164 0.509845
vt 0.298122 0.509845
vt 0.048164 0.904101
vt 0.298122 0.904101
vt 0.298122 0.509845
vt 0.048164 0.509845
vt 0.911481 0.354019
vt 0.911481 0.471657
vt 0.363706 0.471657
vt 0.363706 0.471657
vt 0.911481 0.471657
vt 0.911481 0.354019
vt 0.363706 0.354019
vt 0.911481 0.471657
vt 0.935134 0.471657
vt 0.935134 0.354019
vt 0.911481 0.354019
vn 0.000000 0.000000 1.000000
vn 0.000000 0.000000 1.000000
vn 0.000000 0.000000 1.000000
vn 0.000000 0.000000 1.000000
vn 0.000000 1.000000 0.000000
vn 0.000000 1.000000 0.000000
vn 0.000000 1.000000 0.000000
vn 0.000000 1.000000 0.000000
vn 0.000000 0.000000 -1.000000
vn 0.000000 0.000000 -1.000000
vn 0.000000 0.000000 -1.000000
vn 0.000000 0.000000 -1.000000
vn 0.000000 -1.000000 0.000000
vn 0.000000 -1.000000 0.000000
vn 0.000000 -1.000000 0.000000
vn 0.000000 -1.000000 0.000000
vn 1.000000 0.000000 0.000000
vn 1.000000 0.000000 0.000000
vn 1.000000 0.000000 0.000000
vn 1.000000 0.000000 0.000000
vn -1.000000 0.000000 0.000000
vn -1.000000 0.000000 0.000000
vn -1.000000 0.000000 0.000000
vn -1.000000 0.000000 0.000000
vn 0.000000 -1.000000 0.000000
vn 0.000000 -1.000000 0.000000
vn 0.000000 -1.000000 0.000000
vn 0.000000 -1.000000 0.000000
vn 0.000000 0.000000 1.000000
vn 0.000000 0.000000 1.000000
vn 0.000000 1.000000 0.000000
vn 0.000000 1.000000 0.000000
vn 0.000000 0.000000 -1.000000
vn 0.000000 0.000000 -1.000000
vn 0.000000 0.000000 -1.000000
vn 0.000000 0.000000 -1.000000
vn 1.000000 0.000000 0.000000
vn 1.000000 0.000000 0.000000
vn 0.000000 0.000000 1.000000
vn 0.000000 0.000000 1.000000
vn -1.000000 0.000000 0.000000
vn -1.000000 0.000000 0.000000
vn -1.000000 0.000000 0.000000
vn -1.000000 0.000000 0.000000
s 1
g pCube10
usemtl initialShadingGroup
f 1/1/1 10/2/2 11/3/3 3/4/4
s 2
f 3/9/5 11/34/6 12/35/7 5/36/8
s 3
f 5/5/9 12/6/10 9/7/11 7/8/12
s off
f 7/37/13 9/38/14 10/39/15 1/40/16
s 4
f 2/11/17 8/12/18 6/13/19 4/14/20
s off
f 7/24/21 1/25/22 3/26/23 5/27/24
f 13/41/25 14/42/26 15/43/27 16/44/28
s 1
f 11/3/3 10/2/2 2/10/29 4/15/30
s 2
f 12/35/7 11/34/6 4/23/31 6/22/32
s 3
f 9/7/11 12/6/10 6/16/33 8/17/34
f 9/7/11 8/17/34 14/18/35 13/19/36
s 4
f 8/12/18 2/11/17 15/28/37 14/29/38
s 1
f 2/10/29 10/2/2 16/20/39 15/21/40
s off
f 10/30/41 9/31/42 13/32/43 16/33/44
