# This file uses centimeters as units for non-parametric coordinates.

mtllib Wall2.mtl
g default
v 45.834997 41.347519 85.602098
v -6.904368 41.347519 85.602098
v 45.834997 2.711152 85.602098
v -6.904368 2.711152 85.602098
v 45.834997 2.711152 128.139805
v 1.994634 2.711152 128.139805
v 45.834997 41.347519 128.139805
v 1.994634 41.347519 128.139805
v -6.904368 2.711152 124.758654
v 45.834997 2.711152 124.758654
v 45.834997 41.347519 124.758654
v -6.904368 41.347519 124.758654
v -71.885812 41.347519 124.758654
v -71.885812 2.711152 124.758654
v -71.885812 41.347519 128.139805
v -71.885812 2.711152 128.139805
v 45.834997 54.799331 124.758654
v 45.834997 54.799331 85.602098
v -6.904368 54.799331 85.602098
v -6.904368 54.799331 124.758665
v 45.834997 54.799331 128.139784
v 1.994634 54.799331 128.139805
v -71.885812 54.799331 124.758665
v -71.885812 54.799331 128.139816
v 45.834997 54.799331 124.758654
v 45.834997 54.799331 85.602098
v -6.904368 54.799331 85.602098
v -6.904368 54.799331 124.758665
v 45.834997 54.799331 128.139784
v 1.994634 54.799331 128.139805
v -71.885812 54.799331 124.758665
v -71.885812 54.799331 128.139816
v 1.994634 41.347519 128.139805
v -71.885812 41.347519 128.139805
v 45.834997 77.951304 124.758654
v 45.834997 77.951304 85.602098
v -6.904368 77.951304 85.602098
v -6.904368 77.951304 124.758665
v 45.834997 77.951304 128.139784
v 1.994634 77.951304 128.139816
v -71.885812 77.951304 124.758696
v -71.885812 77.951304 128.139837
vt 0.295004 0.283792
vt 0.295004 0.063717
vt 0.071967 0.063717
vt 0.071967 0.283792
vt 0.941215 0.604962
vt 0.941215 0.411724
vt 0.071967 0.283792
vt 0.552892 0.811563
vt 0.071967 0.063717
vt 0.295004 0.063717
vt 0.875000 0.000000
vt 0.680946 0.411724
vt 0.295004 0.283792
vt 0.052708 0.283792
vt 0.680946 0.604962
vt 0.052708 0.063717
vt 0.071967 0.063717
vt 0.941215 0.411724
vt 0.052708 0.063717
vt 0.052708 0.283792
vt 0.071967 0.283792
vt 0.295004 0.360414
vt 0.071967 0.360414
vt 0.071967 0.360414
vt 0.875000 0.000000
vt 0.295004 0.360414
vt 0.592229 0.767266
vt 0.592229 1.000000
vt 0.842229 1.000000
vt 0.842229 0.767266
vt 0.592229 0.750000
vt 0.842229 0.750000
vt 0.857734 0.000000
vt 0.857734 0.000000
vt 0.875000 0.000000
vt 0.875000 0.000000
vt 0.592229 0.767266
vt 0.592229 1.000000
vt 0.842229 1.000000
vt 0.842229 0.767266
vt 0.592229 0.750000
vt 0.842229 0.750000
vt 0.857734 0.000000
vt 0.857734 0.000000
vt 0.875000 0.000000
vt 0.875000 0.000000
vt 0.875000 0.000000
vt 0.875000 0.000000
vt 0.052708 0.360414
vt 0.052708 0.360414
vt 0.071967 0.360414
vt 0.071967 0.360414
vt 0.295004 0.360414
vt 0.941215 0.604962
vt 0.680946 0.604962
vt 0.295004 0.492289
vt 0.071967 0.492289
vt 0.680946 0.411724
vt 0.552892 0.636521
vt 0.313956 0.636521
vt 0.313956 0.811563
vt 0.552892 0.636521
vt 0.552892 0.811563
vt 0.354273 0.811563
vt 0.354273 0.636521
vt 0.313956 0.636521
vt 0.019558 0.636521
vt 0.019558 0.811563
vt 0.313956 0.811563
vt 0.019558 0.811563
vt 0.019558 0.636521
vt 0.313956 0.872506
vt 0.552892 0.872506
vt 0.552892 0.872506
vt 0.354273 0.872506
vt 0.019558 0.872506
vt 0.313956 0.872506
vt 0.019558 0.811563
vt 0.354273 0.811563
vt 0.354273 0.872506
vt 0.019558 0.872506
vt 0.552892 0.872506
vt 0.313956 0.872506
vt 0.313956 0.977396
vt 0.552892 0.977396
vt 0.552892 0.872506
vt 0.552892 0.977396
vt 0.354273 0.977396
vt 0.313956 0.872506
vt 0.019558 0.872506
vt 0.019558 0.977396
vt 0.313956 0.977396
vt 0.019558 0.977396
vt 0.941215 0.395038
vt 0.724863 0.395038
vt 0.941215 0.395038
vt 0.724863 0.395038
vt 0.360262 0.411724
vt 0.360262 0.395038
vt 0.360262 0.395038
vt 0.360262 0.411724
vt 0.295004 0.360414
vt 0.071967 0.360414
vt 0.071967 0.492289
vt 0.295004 0.492289
vt 0.052708 0.360414
vt 0.052708 0.492289
vt 0.071967 0.360414
vt 0.052708 0.360414
vt 0.052708 0.492289
vt 0.071967 0.492289
vn 0.000000 0.000000 -1.000000
vn 0.000000 0.000000 -1.000000
vn 0.000000 0.000000 -1.000000
vn 0.000000 0.000000 -1.000000
vn 0.000000 -1.000000 0.000000
vn 0.000000 -1.000000 0.000000
vn 0.000000 -1.000000 -0.000000
vn 0.000000 -1.000000 0.000000
vn 0.000000 0.000000 1.000000
vn 0.000000 0.000000 1.000000
vn 0.000000 0.000000 1.000000
vn 0.000000 0.000000 1.000000
vn 0.000000 1.000000 -0.000000
vn 0.000000 1.000000 0.000000
vn 0.000000 1.000000 0.000000
vn 0.000000 1.000000 0.000000
vn -1.000000 -0.000000 0.000000
vn -1.000000 0.000000 0.000000
vn -1.000000 0.000000 0.000000
vn -1.000000 -0.000000 0.000000
vn 1.000000 -0.000000 0.000000
vn 1.000000 0.000000 0.000000
vn 1.000000 0.000000 0.000000
vn 1.000000 0.000000 0.000000
vn 0.000000 -1.000000 0.000000
vn 0.000000 -1.000000 0.000000
vn 1.000000 -0.000000 0.000000
vn 1.000000 0.000000 0.000000
vn 0.000000 1.000000 -0.000002
vn 0.000000 1.000000 -0.000002
vn -1.000000 0.000000 0.000000
vn -1.000000 0.000000 0.000000
vn -1.000000 0.000000 0.000000
vn -1.000000 0.000000 0.000000
vn 0.000000 0.000000 -1.000000
vn 0.000000 0.000000 -1.000000
vn 0.000000 0.000000 -1.000000
vn 0.000000 0.000000 -1.000000
vn 0.000000 1.000000 0.000000
vn 0.000000 1.000000 0.000000
vn 0.000000 0.000000 1.000000
vn 0.000000 0.000000 1.000000
vn 0.000000 -1.000000 -0.000000
vn 0.000000 -1.000000 -0.000000
vn 1.000000 0.000000 0.000000
vn 1.000000 -0.000000 0.000000
vn 0.000000 0.000000 -1.000000
vn 0.000000 0.000000 -1.000000
vn -1.000000 -0.000000 0.000000
vn -1.000000 -0.000000 0.000000
vn 1.000000 -0.000000 0.000000
vn 0.000000 0.000001 1.000000
vn 0.000000 0.000001 1.000000
vn 0.000000 0.000001 -1.000000
vn 0.000000 0.000001 -1.000000
vn -1.000000 0.000000 0.000000
vn -1.000000 0.000000 0.000000
vn 0.000000 -0.000000 1.000000
vn 0.000000 -0.000000 1.000000
vn 0.000000 -0.000000 1.000000
vn 0.000000 -0.000001 1.000000
vn 0.000000 0.000000 0.000000
vn 0.000000 0.000000 0.000000
vn 0.000000 0.000000 0.000000
vn 0.000000 0.000000 0.000000
vn 0.000000 0.000000 0.000000
vn 0.000000 0.000000 0.000000
vn 0.000000 0.000000 0.000000
vn 0.000000 0.000000 0.000000
vn 0.000000 0.000000 0.000000
vn 0.000000 0.000000 0.000000
vn 0.000000 0.000000 0.000000
vn 0.000000 0.000000 0.000000
vn 0.000000 0.000000 0.000000
vn 0.000000 0.000000 0.000000
vn 0.000000 0.000000 0.000000
vn 0.000000 0.000000 0.000000
vn 0.000000 0.000000 0.000000
vn 0.000000 0.000000 0.000000
vn 0.000000 0.000000 0.000000
vn 0.000000 0.000000 0.000000
vn 0.000000 0.000000 0.000000
vn 0.000000 0.000000 0.000000
vn 0.000000 0.000000 0.000000
vn 0.000000 0.000000 0.000000
vn 0.000000 0.000000 0.000000
vn 0.000000 0.000000 0.000000
vn 0.000000 0.000000 0.000000
vn 0.000000 0.000000 0.000000
vn 0.000000 0.000000 0.000000
vn 0.000000 0.000000 0.000000
vn 0.000000 0.000000 0.000000
vn 0.000000 0.000000 0.000000
vn 0.000000 0.000000 0.000000
vn 0.000000 0.000000 0.000000
vn 0.000000 0.000000 0.000000
vn 0.000000 0.000000 0.000000
vn 0.000000 0.000000 0.000000
vn 0.000000 0.000000 0.000000
vn 0.000000 0.000000 0.000000
vn 0.000000 0.000000 0.000000
vn 1.000000 0.000000 0.000000
vn 1.000000 0.000000 0.000000
vn 1.000000 0.000000 0.000000
vn 1.000000 0.000000 0.000000
vn 0.000000 0.000000 -1.000000
vn 0.000000 0.000000 -1.000000
vn 0.000000 0.000000 -1.000000
vn 0.000000 0.000000 -1.000000
vn -1.000000 0.000000 0.000000
vn -1.000000 0.000000 0.000000
vn -1.000000 0.000000 0.000000
vn -1.000000 0.000000 0.000000
vn 1.000000 0.000000 0.000000
vn 1.000000 0.000000 0.000000
vn 0.000001 -0.000000 1.000000
vn 0.000001 -0.000000 1.000000
vn 0.000000 -0.000001 1.000000
vn -0.000000 0.000001 -1.000000
vn -0.000000 0.000001 -1.000000
vn -0.000000 0.000001 -1.000000
vn -0.000000 0.000001 -1.000000
vn -1.000000 0.000000 0.000000
vn -1.000000 0.000000 0.000000
vn -1.000000 0.000000 0.000000
vn -1.000000 0.000000 0.000000
vn 0.000000 -0.000001 1.000000
s 1
g pCube2
usemtl initialShadingGroup
f 1/8/1 3/59/2 4/60/3 2/61/4
s 2
f 3/5/5 10/6/6 9/12/7 4/15/8
s 3
f 5/62/9 7/63/10 8/64/11 6/65/12
s 4
f 35/18/13 36/54/14 37/55/15 38/58/16
s 5
f 2/1/17 4/2/18 9/3/19 12/4/20
s 6
f 11/7/21 10/9/22 3/10/23 1/13/24
s 2
f 10/6/6 5/94/25 6/95/26 9/12/7
s 6
f 7/14/27 5/16/28 10/9/22 11/7/21
s 4
f 39/96/29 35/18/13 38/58/16 40/97/30
s 7
f 14/17/31 16/19/32 15/20/33 13/21/34
s 8
f 9/66/35 14/67/36 13/68/37 12/69/38
s 4
f 38/58/16 41/98/39 42/99/40 40/97/30
s 3
f 8/64/11 15/70/41 16/71/42 6/65/12
s 2
f 6/95/26 16/100/43 14/101/44 9/12/7
s 6
f 11/7/21 1/13/24 18/22/45 17/23/46
s 1
f 1/8/1 2/61/4 19/72/47 18/73/48
s 5
f 2/1/17 12/4/20 20/24/49 19/26/50
s 6
f 7/14/27 11/7/21 17/23/46 21/49/51
s 3
f 8/64/11 7/63/10 21/74/52 22/75/53
s 8
f 12/69/38 13/68/37 23/76/54 20/77/55
s 7
f 13/21/34 15/20/33 24/50/56 23/51/57
s 9
f 34/78/58 33/79/59 30/80/60 32/81/61
s off
f 17/27/62 18/28/63 26/38/64 25/37/65
f 18/28/66 19/29/67 27/39/68 26/38/69
f 19/29/70 20/30/71 28/40/72 27/39/73
f 21/31/74 17/27/75 25/37/76 29/41/77
f 22/32/78 21/31/79 29/41/80 30/42/81
f 20/33/82 23/34/83 31/44/84 28/43/85
f 23/34/86 24/35/87 32/45/88 31/44/89
f 15/25/90 8/11/91 33/47/92 34/46/93
f 8/11/94 22/36/95 30/48/96 33/47/97
f 24/35/98 15/25/99 34/46/100 32/45/101
s 10
f 25/52/102 26/53/103 36/56/104 35/57/105
s off
f 26/82/106 27/83/107 37/84/108 36/85/109
f 27/102/110 28/103/111 38/104/112 37/105/113
s 10
f 29/106/114 25/52/102 35/57/105 39/107/115
s 9
f 30/80/60 29/86/116 39/87/117 40/88/118
s off
f 28/89/119 31/90/120 41/91/121 38/92/122
f 31/108/123 32/109/124 42/110/125 41/111/126
s 9
f 32/81/61 30/80/60 40/88/118 42/93/127
