# This file uses centimeters as units for non-parametric coordinates.

mtllib ch1.mtl
g default
v -107.112573 8.152504 40.725024
v -184.241832 8.152504 40.725024
v -107.112573 2.802042 40.725024
v -184.241832 2.802042 40.725024
v -107.112573 2.802042 54.879279
v -184.241832 2.802042 54.879279
v -107.112573 8.152504 54.879279
v -184.241832 8.152504 54.879279
v -110.065250 2.802042 40.725024
v -110.065250 2.802042 54.879279
v -110.065250 8.152504 54.879279
v -110.065250 8.152504 40.725024
v -181.301569 2.802042 40.725024
v -181.301569 2.802042 54.879279
v -181.301569 8.152504 54.879279
v -181.301569 8.152504 40.725024
v -184.241832 6.602753 40.725024
v -181.301569 6.602753 40.725024
v -110.065250 6.602753 40.725024
v -107.112573 6.602753 40.725024
v -107.112573 6.602753 54.879279
v -110.065250 6.602753 54.879279
v -181.301569 6.602753 54.879279
v -184.241832 6.602753 54.879279
v -107.112573 11.735678 54.879279
v -110.065250 11.735678 54.879279
v -110.065250 11.735678 40.725024
v -107.112573 11.735678 40.725024
v -181.301569 11.735678 54.879279
v -181.301569 11.735678 40.725024
v -184.241832 11.735678 54.879279
v -184.241832 11.735678 40.725024
v -107.112573 8.152504 36.846305
v -110.065250 8.152504 36.846305
v -110.065250 6.602753 36.846305
v -107.112573 6.602753 36.846305
v -110.065250 2.802042 36.846305
v -107.112573 2.802042 36.846305
v -107.112573 11.735678 36.846305
v -110.065250 11.735678 36.846305
v -181.301569 8.152504 36.846305
v -181.301569 6.602753 36.846305
v -184.241832 8.152504 36.846305
v -184.241832 6.602753 36.846305
v -181.301569 2.802042 36.846305
v -184.241832 2.802042 36.846305
v -181.301569 11.735678 36.846305
v -184.241832 11.735678 36.846305
v -110.065250 8.152504 38.570395
v -110.065250 6.602753 38.570395
v -181.301569 8.152504 38.570395
v -181.301569 6.602753 38.570395
v -110.065250 2.802042 38.570399
v -181.301569 2.802042 38.570399
v -110.065250 8.152504 37.583716
v -110.065250 6.602753 37.583716
v -181.301569 8.152504 37.583716
v -181.301569 6.602753 37.583716
vt 0.502398 0.722117
vt 0.502398 0.695107
vt 0.255712 0.695107
vt 0.255712 0.722117
vt 0.890476 0.552021
vt 0.890476 0.408706
vt 0.255712 0.722117
vt 0.255712 0.695107
vt 0.502398 0.695107
vt 0.502398 0.722117
vt 0.255712 0.628867
vt 0.502398 0.628867
vt 0.502398 0.628867
vt 0.255712 0.628867
vt 0.384571 0.250000
vt 0.860580 0.408706
vt 0.255712 0.722117
vt 0.384571 0.000000
vt 0.255712 0.784566
vt 0.615470 0.250000
vt 0.860580 0.552021
vt 0.502398 0.784566
vt 0.502398 0.722117
vt 0.502398 0.784566
vt 0.255712 0.784566
vt 0.502398 0.722117
vt 0.384571 0.072412
vt 0.502398 0.784566
vt 0.255712 0.784566
vt 0.963931 0.895644
vt 0.963931 0.877082
vt 0.928566 0.877082
vt 0.928566 0.895644
vt 0.255712 0.722117
vt 0.255712 0.784566
vt 0.502398 0.784566
vt 0.569998 0.722117
vt 0.569998 0.695107
vt 0.502398 0.695107
vt 0.569998 0.695107
vt 0.569998 0.722117
vt 0.569998 0.628867
vt 0.502398 0.628867
vt 0.569998 0.628867
vt 0.569998 0.784566
vt 0.569998 0.784566
vt 0.963931 0.877082
vt 0.963931 0.895644
vt 0.928566 0.895644
vt 0.928566 0.877082
vt 0.890476 0.408706
vt 0.928566 0.831559
vt 0.075339 0.831559
vt 0.890476 0.552021
vt 0.075339 0.895644
vt 0.075339 0.877082
vt 0.928566 0.877082
vt 0.075339 0.877082
vt 0.502398 0.695107
vt 0.569998 0.695107
vt 0.569998 0.722117
vt 0.569998 0.722117
vt 0.384571 0.072412
vt 0.384571 0.000000
vt 0.615470 0.000000
vt 0.615470 0.072412
vt 0.384571 0.250000
vt 0.615470 0.250000
vt 0.384571 0.072412
vt 0.384571 0.000000
vt 0.615470 0.000000
vt 0.615470 0.072412
vt 0.569998 0.695107
vt 0.502398 0.628867
vt 0.860580 0.552021
vt 0.860580 0.408706
vt 0.139295 0.408706
vt 0.139295 0.552021
vt 0.569998 0.628867
vt 0.569998 0.628867
vt 0.569998 0.784566
vt 0.569998 0.784566
vt 0.860580 0.573837
vt 0.860580 0.583828
vt 0.139295 0.583828
vt 0.139295 0.573837
vt 0.860580 0.552021
vt 0.139295 0.552021
vt 0.139295 0.583828
vt 0.860580 0.583828
vt 0.860580 0.573837
vt 0.139295 0.573837
vt 0.139295 0.573837
vt 0.860580 0.573837
vt 0.109524 0.591294
vt 0.139295 0.591294
vt 0.139295 0.591294
vt 0.109524 0.591294
vt 0.860580 0.591294
vt 0.890476 0.591294
vt 0.890476 0.591294
vt 0.860580 0.591294
vt 0.139295 0.408706
vt 0.109524 0.408706
vt 0.109524 0.552021
vt 0.139295 0.552021
vt 0.109524 0.552021
vt 0.109524 0.408706
vt 0.139295 0.408706
vt 0.860580 0.408706
vt 0.615470 0.000000
vt 0.615470 0.072412
vt 0.075339 0.895644
vt 0.928566 0.895644
vt 0.040122 0.895644
vt 0.040122 0.877082
vt 0.075339 0.877082
vt 0.040122 0.877082
vt 0.040122 0.895644
vt 0.075339 0.895644
vt 0.075339 0.831559
vt 0.040122 0.831559
vt 0.928566 0.831559
vt 0.075339 0.831559
vt 0.075339 0.877082
vt 0.928566 0.877082
vt 0.963931 0.831559
vt 0.928566 0.831559
vt 0.963931 0.831559
vt 0.040122 0.831559
vt 0.963931 0.938561
vt 0.928566 0.938561
vt 0.928566 0.938561
vt 0.963931 0.938561
vt 0.075339 0.938561
vt 0.040122 0.938561
vt 0.040122 0.938561
vt 0.075339 0.938561
vn 0.000000 0.000000 -1.000000
vn 0.000000 0.000000 -1.000000
vn 0.000000 0.000000 -1.000000
vn 0.000000 0.000000 -1.000000
vn 0.000000 -1.000000 0.000000
vn 0.000000 -1.000000 0.000000
vn 0.000000 -1.000000 0.000000
vn 0.000000 -1.000000 0.000000
vn 0.000000 0.000000 1.000000
vn 0.000000 0.000000 1.000000
vn 0.000000 0.000000 1.000000
vn 0.000000 0.000000 1.000000
vn 0.000000 1.000000 0.000000
vn 0.000000 1.000000 0.000000
vn 0.000000 1.000000 0.000000
vn 0.000000 1.000000 0.000000
vn -1.000000 0.000000 0.000000
vn -1.000000 0.000000 0.000000
vn -1.000000 0.000000 0.000000
vn -1.000000 0.000000 0.000000
vn 1.000000 0.000000 0.000000
vn 1.000000 0.000000 0.000000
vn 1.000000 0.000000 0.000000
vn 1.000000 0.000000 0.000000
vn 0.000000 -1.000000 0.000000
vn 0.000000 -1.000000 0.000000
vn 0.000000 0.000000 1.000000
vn 0.000000 0.000000 1.000000
vn 0.000000 1.000000 0.000000
vn 0.000000 1.000000 0.000000
vn 0.000000 1.000000 0.000000
vn 0.000000 1.000000 0.000000
vn 0.000000 0.000000 -1.000000
vn 0.000000 0.000000 -1.000000
vn 0.000000 0.000000 -1.000000
vn 0.000000 0.000000 -1.000000
vn 0.000000 -1.000000 0.000000
vn 0.000000 -1.000000 0.000000
vn 0.000000 0.000000 1.000000
vn 0.000000 0.000000 1.000000
vn 0.000000 1.000000 0.000000
vn 0.000000 1.000000 0.000000
vn 0.000000 1.000000 0.000000
vn 0.000000 1.000000 0.000000
vn 0.000000 0.000000 -1.000000
vn 0.000000 0.000000 -1.000000
vn 0.000000 0.000000 -1.000000
vn 0.000000 0.000000 -1.000000
vn 0.000000 0.000000 -1.000000
vn 0.000000 0.000000 -1.000000
vn 0.000000 -0.000001 -1.000000
vn 0.000000 -0.000001 -1.000000
vn 0.000000 -0.000001 -1.000000
vn 0.000000 -0.000001 -1.000000
vn 0.000000 0.000000 -1.000000
vn 0.000000 0.000000 -1.000000
vn 1.000000 0.000000 0.000000
vn 1.000000 0.000000 0.000000
vn 0.000000 0.000000 1.000000
vn 0.000000 0.000000 1.000000
vn 0.000000 0.000000 1.000000
vn 0.000000 0.000000 1.000000
vn -1.000000 0.000000 0.000000
vn -1.000000 0.000000 0.000000
vn 0.000000 0.000000 1.000000
vn 0.000000 0.000000 1.000000
vn -1.000000 0.000000 0.000000
vn -1.000000 0.000000 0.000000
vn -1.000000 0.000000 0.000000
vn -1.000000 0.000000 0.000000
vn 0.000000 0.000000 -1.000000
vn 0.000000 0.000000 -1.000000
vn 1.000000 0.000000 0.000000
vn 1.000000 0.000000 0.000000
vn 1.000000 0.000000 0.000000
vn 1.000000 0.000000 0.000000
vn 1.000000 0.000000 0.000000
vn 1.000000 0.000000 0.000000
vn 0.000000 0.000000 1.000000
vn 0.000000 0.000000 1.000000
vn -1.000000 0.000000 0.000000
vn -1.000000 0.000000 0.000000
vn 0.000000 0.000000 -1.000000
vn 0.000000 0.000000 -1.000000
vn -1.000000 0.000000 0.000000
vn -1.000000 0.000000 0.000000
vn -1.000000 0.000000 0.000000
vn 1.000000 0.000000 0.000000
vn 1.000000 0.000000 0.000000
vn -1.000000 0.000000 0.000000
vn -1.000000 0.000000 0.000000
vn 0.000000 -1.000000 0.000000
vn 0.000000 -1.000000 0.000000
vn 1.000000 0.000000 0.000000
vn 1.000000 0.000000 0.000000
vn 0.000000 1.000000 0.000000
vn 0.000000 1.000000 0.000000
vn -1.000000 0.000000 0.000000
vn 1.000000 0.000000 0.000000
vn 1.000000 0.000000 0.000000
vn 1.000000 0.000000 0.000000
vn -1.000000 0.000000 0.000000
vn -1.000000 0.000000 0.000000
vn 1.000000 0.000000 0.000000
vn 1.000000 0.000000 0.000000
vn -1.000000 0.000000 0.000000
vn 0.000000 -1.000000 0.000000
vn 0.000000 -1.000000 0.000000
vn 1.000000 0.000000 0.000000
vn 0.000000 1.000000 0.000000
vn 0.000000 1.000000 0.000000
vn -1.000000 0.000000 0.000000
vn 1.000000 0.000000 0.000000
vn 1.000000 0.000000 0.000000
vn 1.000000 0.000000 0.000000
vn 1.000000 0.000000 0.000000
vn 0.000000 1.000000 0.000000
vn 0.000000 1.000000 0.000000
vn -1.000000 0.000000 0.000000
vn -1.000000 0.000000 0.000000
vn -1.000000 0.000000 0.000000
vn -1.000000 0.000000 0.000000
vn 1.000000 0.000000 0.000000
vn 1.000000 0.000000 0.000000
vn -1.000000 0.000000 0.000000
vn -1.000000 0.000000 0.000000
vn 0.000000 -1.000000 0.000000
vn 0.000000 -1.000000 0.000000
vn 1.000000 0.000000 0.000000
vn 1.000000 0.000000 0.000000
vn 0.000000 1.000000 0.000000
vn 0.000000 1.000000 0.000000
vn -1.000000 0.000000 0.000000
vn -1.000000 0.000000 0.000000
vn 0.000000 -1.000000 0.000000
vn 0.000000 -1.000000 0.000000
vn 0.000000 -1.000000 0.000000
vn 0.000000 -1.000000 0.000000
s 1
g pCube11
usemtl initialShadingGroup
f 33/30/1 36/31/2 35/32/3 34/33/4
s 2
f 3/5/5 5/6/6 10/16/7 9/21/8
s 3
f 21/47/9 7/48/10 11/49/11 22/50/12
s 4
f 25/51/13 28/54/14 27/75/15 26/76/16
s 5
f 2/1/17 17/2/18 24/3/19 8/4/20
s 6
f 7/7/21 21/8/22 20/9/23 1/10/24
s 2
f 9/21/8 10/16/7 14/77/25 13/78/26
s 3
f 11/49/11 15/55/27 23/56/28 22/50/12
s 7
f 12/87/29 16/88/30 15/109/31 11/110/32
s off
f 56/57/33 58/58/34 57/113/35 55/114/36
s 2
f 13/78/26 14/77/25 6/108/37 4/107/38
s 3
f 15/55/27 8/115/39 24/116/40 23/56/28
s 8
f 30/106/41 32/105/42 31/104/43 29/103/44
s 9
f 42/117/45 44/118/46 43/119/47 41/120/48
f 45/121/49 46/122/50 44/118/46 42/117/45
s off
f 53/123/51 54/124/52 52/125/53 50/126/54
s 1
f 36/31/2 38/127/55 37/128/56 35/32/3
s 6
f 21/8/22 5/11/57 3/12/58 20/9/23
s 3
f 5/129/59 21/47/9 22/50/12 10/52/60
f 23/56/28 14/53/61 10/52/60 22/50/12
f 24/116/40 6/130/62 14/53/61 23/56/28
s 5
f 17/2/18 4/13/63 6/14/64 24/3/19
s 3
f 7/48/10 25/131/65 26/132/66 11/49/11
s 10
f 11/17/67 26/19/68 27/22/69 12/23/70
s 1
f 34/33/4 40/133/71 39/134/72 33/30/1
s 6
f 1/10/24 28/24/73 25/25/74 7/7/21
s 11
f 16/26/75 30/28/76 29/29/77 15/34/78
s 3
f 15/55/27 29/135/79 31/136/80 8/115/39
s 5
f 8/4/20 31/35/81 32/36/82 2/1/17
s 9
f 43/119/47 48/137/83 47/138/84 41/120/48
s 10
f 12/23/70 34/37/85 35/38/86 19/39/87
s 6
f 20/9/23 36/40/88 33/41/89 1/10/24
s 10
f 19/39/87 35/38/86 37/42/90 9/43/91
s 2
f 9/21/8 37/102/92 38/101/93 3/5/5
s 6
f 3/12/58 38/44/94 36/40/88 20/9/23
f 1/10/24 33/41/89 39/45/95 28/24/73
s 4
f 28/54/14 39/100/96 40/99/97 27/75/15
s 10
f 27/22/69 40/46/98 34/37/85 12/23/70
s 11
f 18/59/99 42/60/100 41/61/101 16/26/75
s 5
f 2/1/17 43/62/102 44/73/103 17/2/18
s 11
f 13/74/104 45/79/105 42/60/100 18/59/99
s 5
f 17/2/18 44/73/103 46/80/106 4/13/63
s 2
f 4/107/38 46/98/107 45/97/108 13/78/26
s 11
f 16/26/75 41/61/101 47/81/109 30/28/76
s 8
f 30/106/41 47/96/110 48/95/111 32/105/42
s 5
f 32/36/82 48/82/112 43/62/102 2/1/17
s 13
f 19/27/113 50/63/114 49/64/115 12/18/116
s 7
f 12/87/29 49/94/117 51/93/118 16/88/30
s 14
f 16/111/119 51/65/120 52/66/121 18/112/122
s 13
f 9/15/123 53/67/124 50/63/114 19/27/113
s 14
f 18/112/122 52/66/121 54/68/125 13/20/126
s 2
f 13/78/26 54/92/127 53/91/128 9/21/8
s 13
f 50/63/114 56/69/129 55/70/130 49/64/115
s 7
f 49/94/117 55/90/131 57/89/132 51/93/118
s 14
f 51/65/120 57/71/133 58/72/134 52/66/121
s off
f 52/86/135 58/85/136 56/84/137 50/83/138
