# This file uses centimeters as units for non-parametric coordinates.

mtllib Wall42.mtl
g default
v -107.428969 3.163702 310.056743
v -71.845869 3.163702 310.056743
v -107.428969 78.098517 310.056743
v -71.845869 78.098517 310.056743
v -107.428969 78.098517 271.404153
v -71.845869 78.098517 271.404153
v -107.428969 3.163702 271.404153
v -71.845869 3.163702 271.404153
v -107.428969 78.098517 290.437938
v -107.428969 3.163702 290.437938
v -71.845869 3.163702 290.437938
v -71.845869 78.098517 290.437938
v -184.032485 3.163702 290.437938
v -184.032485 3.163702 310.056743
v -184.032485 78.098517 310.056743
v -184.032485 78.098517 290.437938
vt 0.789286 0.037305
vt 0.983332 0.037305
vt 0.776050 0.662878
vt 0.963336 0.662878
vt 0.963336 0.766138
vt 0.776050 0.766138
vt 0.776050 0.766138
vt 0.963336 0.766138
vt 0.963336 0.662878
vt 0.776050 0.662878
vt 0.029892 0.357094
vt 0.191111 0.357094
vt 0.191111 0.972876
vt 0.029892 0.972876
vt 0.191111 0.357094
vt 0.776050 0.866319
vt 0.963336 0.866319
vt 0.029892 0.357094
vt 0.983332 0.445950
vt 0.789286 0.445950
vt 0.789286 0.445950
vt 0.983332 0.445950
vt 0.983332 0.037305
vt 0.789286 0.037305
vt 0.963336 0.866319
vt 0.776050 0.866319
vt 0.372860 0.662878
vt 0.372860 0.766138
vt 0.372860 0.766138
vt 0.029892 0.972876
vt 0.372860 0.662878
vt 0.191111 0.972876
vt 0.347523 0.972876
vt 0.347523 0.357094
vt 0.347523 0.972876
vt 0.191111 0.972876
vt 0.371541 0.445950
vt 0.371541 0.037305
vt 0.789286 0.445950
vt 0.789286 0.037305
vt 0.371541 0.037305
vt 0.371541 0.445950
vt 0.347523 0.357094
vt 0.191111 0.357094
vn 0.000000 0.000000 1.000000
vn 0.000000 0.000000 1.000000
vn 0.000000 0.000000 1.000000
vn 0.000000 0.000000 1.000000
vn 0.000000 1.000000 0.000000
vn 0.000000 1.000000 0.000000
vn 0.000000 1.000000 0.000000
vn 0.000000 1.000000 0.000000
vn 0.000000 0.000000 -1.000000
vn 0.000000 0.000000 -1.000000
vn 0.000000 0.000000 -1.000000
vn 0.000000 0.000000 -1.000000
vn 0.000000 -1.000000 0.000000
vn 0.000000 -1.000000 0.000000
vn 0.000000 -1.000000 0.000000
vn 0.000000 -1.000000 0.000000
vn 1.000000 0.000000 0.000000
vn 1.000000 0.000000 0.000000
vn 1.000000 0.000000 0.000000
vn 1.000000 0.000000 0.000000
vn -1.000000 0.000000 0.000000
vn -1.000000 0.000000 0.000000
vn -1.000000 0.000000 0.000000
vn -1.000000 0.000000 0.000000
vn -1.000000 0.000000 0.000000
vn -1.000000 0.000000 0.000000
vn -1.000000 0.000000 0.000000
vn -1.000000 0.000000 0.000000
vn 0.000000 -1.000000 0.000000
vn 0.000000 -1.000000 0.000000
vn 1.000000 0.000000 0.000000
vn 1.000000 0.000000 0.000000
vn 0.000000 1.000000 0.000000
vn 0.000000 1.000000 0.000000
vn 0.000000 -1.000000 0.000000
vn 0.000000 -1.000000 0.000000
vn 0.000000 0.000000 1.000000
vn 0.000000 0.000000 1.000000
vn 0.000000 1.000000 0.000000
vn 0.000000 1.000000 0.000000
vn 0.000000 0.000000 -1.000000
vn 0.000000 0.000000 -1.000000
vn 0.000000 0.000000 -1.000000
vn 0.000000 0.000000 -1.000000
s 1
g pCube26
usemtl initialShadingGroup
f 1/1/1 2/2/2 4/19/3 3/20/4
s 2
f 3/3/5 4/4/6 12/5/7 9/6/8
s off
f 5/21/9 6/22/10 8/23/11 7/24/12
s 3
f 10/7/13 11/8/14 2/9/15 1/10/16
s 4
f 2/11/17 11/12/18 12/13/19 4/14/20
s off
f 13/15/21 14/18/22 15/30/23 16/32/24
f 7/43/25 10/44/26 9/36/27 5/35/28
s 3
f 7/16/29 8/17/30 11/8/14 10/7/13
s 4
f 12/13/19 11/12/18 8/34/31 6/33/32
s 2
f 9/6/8 12/5/7 6/25/33 5/26/34
s 3
f 10/7/13 1/10/16 14/27/35 13/28/36
s 1
f 1/1/1 3/20/4 15/37/37 14/38/38
s 2
f 3/3/5 9/6/8 16/29/39 15/31/40
s off
f 9/39/41 10/40/42 13/41/43 16/42/44
